<svg width="192" height="195" fill="none" xmlns="http://www.w3.org/2000/svg"><path fill="#2356A3" d="M0 0h192v192H0z"/><path transform="rotate(-12 4.64 41.172)" fill="#000" style="mix-blend-mode:soft-light" d="M4.641 41.172h154.741V187.19H4.641z" opacity=".2"/><path transform="rotate(12.968 36.565 3.898)" fill="#000" style="mix-blend-mode:soft-light" d="M36.565 3.898H192.99v154.031H36.565z" opacity=".1"/><path transform="rotate(24 60.06 2.593)" fill="#000" style="mix-blend-mode:soft-light" d="M60.06 2.593h141.142v142.749H60.06z" opacity=".4"/><path opacity=".9" d="M48.184 156V27.152h48.34c9.843 0 17.724 1.319 23.642 3.955 5.977 2.578 10.635 6.592 13.975 12.041 3.398 5.391 5.097 11.045 5.097 16.963 0 5.508-1.494 10.694-4.482 15.557-2.988 4.863-7.5 8.789-13.535 11.777 7.793 2.286 13.769 6.182 17.929 11.69 4.219 5.508 6.329 12.011 6.329 19.511 0 6.036-1.29 11.661-3.868 16.875-2.519 5.157-5.654 9.141-9.404 11.954-3.75 2.812-8.467 4.951-14.15 6.416-5.625 1.406-12.539 2.109-20.743 2.109h-49.13Zm17.05-74.707h27.862c7.558 0 12.978-.498 16.259-1.494 4.336-1.29 7.588-3.428 9.756-6.416 2.227-2.989 3.34-6.739 3.34-11.25 0-4.278-1.025-8.028-3.076-11.25-2.051-3.281-4.98-5.508-8.789-6.68-3.809-1.23-10.342-1.846-19.6-1.846H65.234v38.936Zm0 59.502h32.08c5.508 0 9.375-.205 11.602-.615 3.926-.703 7.207-1.875 9.844-3.516 2.636-1.641 4.804-4.014 6.504-7.119 1.699-3.164 2.548-6.797 2.548-10.899 0-4.804-1.23-8.964-3.691-12.48-2.461-3.574-5.889-6.064-10.283-7.47-4.336-1.465-10.606-2.198-18.809-2.198H65.234v44.297Z" fill="#fff"/></svg>