<svg width="192" height="192" fill="none" xmlns="http://www.w3.org/2000/svg"><path fill="#2356A3" d="M0 0h192v192H0z"/><path transform="rotate(-12 4.64 41.172)" fill="#000" style="mix-blend-mode:soft-light" d="M4.641 41.172h154.741V187.19H4.641z" opacity=".2"/><path transform="rotate(12.968 36.565 3.898)" fill="#000" style="mix-blend-mode:soft-light" d="M36.565 3.898H192.99v154.031H36.565z" opacity=".1"/><path transform="rotate(24 60.06 2.593)" fill="#000" style="mix-blend-mode:soft-light" d="M60.06 2.593h141.142v142.749H60.06z" opacity=".4"/><g opacity=".9"><path d="M47 160.848V32h48.34c9.844 0 17.724 1.318 23.642 3.955 5.977 2.578 10.635 6.592 13.975 12.041 3.398 5.39 5.098 11.045 5.098 16.963 0 5.508-1.494 10.693-4.483 15.557-2.988 4.863-7.5 8.789-13.535 11.777 7.793 2.285 13.77 6.182 17.93 11.689 4.219 5.508 6.328 12.012 6.328 19.512 0 6.035-1.289 11.66-3.867 16.875-2.52 5.156-5.655 9.141-9.405 11.953-3.75 2.813-8.466 4.951-14.15 6.416-5.625 1.407-12.539 2.11-20.742 2.11H47Zm17.05-74.707h27.862c7.559 0 12.979-.498 16.26-1.495 4.336-1.289 7.588-3.427 9.756-6.415 2.226-2.989 3.34-6.739 3.34-11.25 0-4.278-1.026-8.028-3.077-11.25-2.05-3.282-4.98-5.508-8.789-6.68-3.808-1.23-10.341-1.846-19.6-1.846H64.052v38.936Zm0 59.502h32.08c5.509 0 9.376-.205 11.602-.616 3.926-.703 7.207-1.875 9.844-3.515 2.637-1.641 4.805-4.014 6.504-7.119 1.699-3.164 2.549-6.797 2.549-10.899 0-4.805-1.231-8.965-3.691-12.48-2.461-3.575-5.889-6.065-10.284-7.471-4.336-1.465-10.605-2.197-18.808-2.197H64.05v44.297Z" fill="#fff"/><path d="M46.5 160.848v.5l93.928-20.979.448.222c2.613-5.287 3.919-10.988 3.919-17.097 0-7.6-2.14-14.213-6.431-19.815-4.021-5.323-9.7-9.152-17.004-11.502 5.558-2.949 9.779-6.746 12.638-11.4 3.035-4.939 4.557-10.214 4.557-15.818 0-6.019-1.73-11.764-5.173-17.227-3.395-5.537-8.132-9.617-14.199-12.235-6.006-2.675-13.964-3.997-23.843-3.997H46.5v129.348Zm61.529-76.68h-.002c-3.205.973-8.56 1.473-16.115 1.473H64.551V47.705h25.252c9.256 0 15.719.617 19.446 1.822l.006.002c3.698 1.137 6.527 3.29 8.512 6.466l.003.004c1.993 3.133 2.998 6.787 2.998 10.982 0 4.427-1.092 8.066-3.241 10.95l-.004.006c-2.09 2.88-5.239 4.965-9.494 6.23Zm-.385 60.367-.002.001c-2.177.401-6.003.607-11.511.607H64.55v-43.297h29.295c8.184 0 14.389.732 18.648 2.171l.008.002c4.296 1.375 7.63 3.801 10.024 7.278l.002.003c2.395 3.422 3.601 7.479 3.601 12.194 0 4.03-.834 7.579-2.489 10.661-1.663 3.039-3.775 5.343-6.328 6.932-2.57 1.599-5.787 2.753-9.668 3.448Z" stroke="#000" stroke-opacity=".33" style="mix-blend-mode:soft-light"/></g></svg>