<svg width="192" height="195" viewBox="0 0 192 195" fill="none" xmlns="http://www.w3.org/2000/svg">
<rect width="192" height="192" fill="#2356A3"/>
<g opacity="0.2">
<rect x="4.64062" y="41.1724" width="154.741" height="146.018" transform="rotate(-12 4.64062 41.1724)" fill="black" style="mix-blend-mode:soft-light"/>
</g>
<g opacity="0.1">
<rect x="36.5645" y="3.89764" width="156.425" height="154.031" transform="rotate(12.9679 36.5645 3.89764)" fill="black" style="mix-blend-mode:soft-light"/>
</g>
<g opacity="0.4">
<rect x="60.0605" y="2.59253" width="141.142" height="142.749" transform="rotate(24 60.0605 2.59253)" fill="black" style="mix-blend-mode:soft-light"/>
</g>
<path opacity="0.9" d="M48.1836 156V27.1523H96.5234C106.367 27.1523 114.248 28.4707 120.166 31.1074C126.143 33.6855 130.801 37.6992 134.141 43.1484C137.539 48.5391 139.238 54.1934 139.238 60.1113C139.238 65.6191 137.744 70.8047 134.756 75.668C131.768 80.5312 127.256 84.457 121.221 87.4453C129.014 89.7305 134.99 93.627 139.15 99.1348C143.369 104.643 145.479 111.146 145.479 118.646C145.479 124.682 144.189 130.307 141.611 135.521C139.092 140.678 135.957 144.662 132.207 147.475C128.457 150.287 123.74 152.426 118.057 153.891C112.432 155.297 105.518 156 97.3145 156H48.1836ZM65.2344 81.293H93.0957C100.654 81.293 106.074 80.7949 109.355 79.7988C113.691 78.5098 116.943 76.3711 119.111 73.3828C121.338 70.3945 122.451 66.6445 122.451 62.1328C122.451 57.8555 121.426 54.1055 119.375 50.8828C117.324 47.6016 114.395 45.375 110.586 44.2031C106.777 42.9727 100.244 42.3574 90.9863 42.3574H65.2344V81.293ZM65.2344 140.795H97.3145C102.822 140.795 106.689 140.59 108.916 140.18C112.842 139.477 116.123 138.305 118.76 136.664C121.396 135.023 123.564 132.65 125.264 129.545C126.963 126.381 127.812 122.748 127.812 118.646C127.812 113.842 126.582 109.682 124.121 106.166C121.66 102.592 118.232 100.102 113.838 98.6953C109.502 97.2305 103.232 96.498 95.0293 96.498H65.2344V140.795Z" fill="white"/>
</svg>
