<svg width="192" height="192" viewBox="0 0 192 192" fill="none" xmlns="http://www.w3.org/2000/svg">
<rect width="192" height="192" fill="#2356A3"/>
<g opacity="0.2">
<rect x="4.64062" y="41.1724" width="154.741" height="146.018" transform="rotate(-12 4.64062 41.1724)" fill="black" style="mix-blend-mode:soft-light"/>
</g>
<g opacity="0.1">
<rect x="36.5645" y="3.89764" width="156.425" height="154.031" transform="rotate(12.9679 36.5645 3.89764)" fill="black" style="mix-blend-mode:soft-light"/>
</g>
<g opacity="0.4">
<rect x="60.0605" y="2.59253" width="141.142" height="142.749" transform="rotate(24 60.0605 2.59253)" fill="black" style="mix-blend-mode:soft-light"/>
</g>
<path opacity="0.9" d="M48.1836 167V38.1523H96.5234C106.367 38.1523 114.248 39.4707 120.166 42.1074C126.143 44.6855 130.801 48.6992 134.141 54.1484C137.539 59.5391 139.238 65.1934 139.238 71.1113C139.238 76.6191 137.744 81.8047 134.756 86.668C131.768 91.5312 127.256 95.457 121.221 98.4453C129.014 100.73 134.99 104.627 139.15 110.135C143.369 115.643 145.479 122.146 145.479 129.646C145.479 135.682 144.189 141.307 141.611 146.521C139.092 151.678 135.957 155.662 132.207 158.475C128.457 161.287 123.74 163.426 118.057 164.891C112.432 166.297 105.518 167 97.3145 167H48.1836ZM65.2344 92.293H93.0957C100.654 92.293 106.074 91.7949 109.355 90.7988C113.691 89.5098 116.943 87.3711 119.111 84.3828C121.338 81.3945 122.451 77.6445 122.451 73.1328C122.451 68.8555 121.426 65.1055 119.375 61.8828C117.324 58.6016 114.395 56.375 110.586 55.2031C106.777 53.9727 100.244 53.3574 90.9863 53.3574H65.2344V92.293ZM65.2344 151.795H97.3145C102.822 151.795 106.689 151.59 108.916 151.18C112.842 150.477 116.123 149.305 118.76 147.664C121.396 146.023 123.564 143.65 125.264 140.545C126.963 137.381 127.812 133.748 127.812 129.646C127.812 124.842 126.582 120.682 124.121 117.166C121.66 113.592 118.232 111.102 113.838 109.695C109.502 108.23 103.232 107.498 95.0293 107.498H65.2344V151.795Z" fill="#DBE9FF"/>
</svg>
