<svg width="192" height="192" viewBox="0 0 192 192" fill="none" xmlns="http://www.w3.org/2000/svg">
<rect width="192" height="192" fill="#2356A3"/>
<g opacity="0.4">
<rect x="60.0605" y="2.59253" width="141.142" height="142.749" transform="rotate(24 60.0605 2.59253)" fill="black" style="mix-blend-mode:soft-light"/>
</g>
<g opacity="0.9">
<path d="M47 160.848V32H95.3398C105.184 32 113.064 33.3184 118.982 35.9551C124.959 38.5332 129.617 42.5469 132.957 47.9961C136.355 53.3867 138.055 59.041 138.055 64.959C138.055 70.4668 136.561 75.6523 133.572 80.5156C130.584 85.3789 126.072 89.3047 120.037 92.293C127.83 94.5781 133.807 98.4746 137.967 103.982C142.186 109.49 144.295 115.994 144.295 123.494C144.295 129.529 143.006 135.154 140.428 140.369C137.908 145.525 134.773 149.51 131.023 152.322C127.273 155.135 122.557 157.273 116.873 158.738C111.248 160.145 104.334 160.848 96.1309 160.848H47ZM64.0508 86.1406H91.9121C99.4707 86.1406 104.891 85.6426 108.172 84.6465C112.508 83.3574 115.76 81.2188 117.928 78.2305C120.154 75.2422 121.268 71.4922 121.268 66.9805C121.268 62.7031 120.242 58.9531 118.191 55.7305C116.141 52.4492 113.211 50.2227 109.402 49.0508C105.594 47.8203 99.0605 47.2051 89.8027 47.2051H64.0508V86.1406ZM64.0508 145.643H96.1309C101.639 145.643 105.506 145.438 107.732 145.027C111.658 144.324 114.939 143.152 117.576 141.512C120.213 139.871 122.381 137.498 124.08 134.393C125.779 131.229 126.629 127.596 126.629 123.494C126.629 118.689 125.398 114.529 122.938 111.014C120.477 107.439 117.049 104.949 112.654 103.543C108.318 102.078 102.049 101.346 93.8457 101.346H64.0508V145.643Z" fill="white"/>
<path d="M46.5 160.848V161.348L140.428 140.369L140.876 140.591C140.876 140.591 140.876 140.591 140.876 140.591C143.489 135.304 144.795 129.603 144.795 123.494C144.795 115.894 142.655 109.281 138.364 103.679C134.343 98.3562 128.664 94.5269 121.36 92.1766C126.918 89.2284 131.139 85.4315 133.998 80.7774C137.033 75.8384 138.555 70.5627 138.555 64.959C138.555 58.9403 136.825 53.1952 133.382 47.7319C129.987 42.1954 125.25 38.115 119.183 35.4972C113.177 32.8218 105.219 31.5 95.3398 31.5H47H46.5V32V160.848ZM108.029 84.1672L108.027 84.168C104.822 85.141 99.4661 85.6406 91.9121 85.6406H64.5508V47.7051H89.8027C99.0587 47.7051 105.522 48.3225 109.249 49.5266L109.249 49.5266L109.255 49.5287C112.953 50.6663 115.782 52.8195 117.767 55.9955L117.77 55.9989C119.763 59.132 120.768 62.7865 120.768 66.9805C120.768 71.4078 119.676 75.0467 117.527 77.9317L117.523 77.9369C115.433 80.8175 112.284 82.9023 108.029 84.1672ZM107.644 144.535L107.642 144.536C105.465 144.937 101.639 145.143 96.1309 145.143H64.5508V101.846H93.8457C102.03 101.846 108.235 102.578 112.494 104.017L112.494 104.017L112.502 104.019C116.798 105.394 120.132 107.82 122.526 111.297L122.528 111.3C124.923 114.722 126.129 118.779 126.129 123.494C126.129 127.524 125.295 131.073 123.64 134.155C121.977 137.194 119.865 139.498 117.312 141.087C114.742 142.686 111.525 143.84 107.644 144.535Z" stroke="black" stroke-opacity="0.33" style="mix-blend-mode:soft-light"/>
</g>
</svg>
